 <svg  version="1.0" xmlns="http://www.w3.org/2000/svg"  width="125.000000pt" height="95.000000pt" viewBox="0 0 125.000000 95.000000"  preserveAspectRatio="xMidYMid meet">  <g transform="translate(0.000000,95.000000) scale(0.100000,-0.100000)" fill="#75acda" stroke="none"> <path d="M560 748 c-95 -49 -127 -172 -65 -252 26 -35 37 -5 15 39 -24 46 -25 74 -6 119 30 71 102 100 176 69 l45 -18 -50 -6 -50 -6 55 -1 c61 -2 74 -13 85 -75 7 -36 -20 -117 -44 -131 -6 -4 -11 -22 -11 -41 0 -40 38 -75 79 -75 25 1 25 1 -6 15 -18 8 -38 25 -44 39 -10 21 -7 31 20 72 55 83 37 190 -40 241 -54 36 -104 39 -159 11z"/> <path d="M563 690 c1 -18 9 -26 25 -28 12 -2 22 1 22 7 0 6 -9 11 -19 11 -11 0 -22 8 -25 18 -3 10 -4 6 -3 -8z"/> <path d="M690 625 c0 -19 -3 -35 -7 -35 -5 0 -14 -12 -21 -27 -10 -22 -10 -30 1 -41 12 -11 16 -10 27 2 10 13 10 19 -1 33 -11 13 -11 17 -1 20 6 3 13 21 13 41 1 21 3 29 6 20 2 -10 9 -18 14 -18 5 0 9 -7 9 -15 0 -8 8 -15 18 -14 10 0 12 3 5 6 -7 2 -13 9 -13 14 0 11 -32 49 -42 49 -5 0 -8 -16 -8 -35z"/> <path d="M528 633 c12 -2 22 -11 22 -19 0 -8 7 -14 15 -14 18 0 20 -31 3 -48 -8 -8 -8 -15 2 -27 12 -14 15 -14 29 -1 12 12 13 19 3 28 -7 7 -12 22 -12 35 0 14 -6 23 -15 23 -8 0 -15 7 -15 15 0 10 -9 15 -27 14 -24 -2 -25 -2 -5 -6z"/> <path d="M580 460 c0 -63 -45 -110 -105 -110 -35 0 -71 19 -83 44 -9 18 -11 18 -11 3 -1 -10 10 -29 24 -42 42 -43 141 -28 179 27 18 25 22 93 6 103 -6 4 -10 -7 -10 -25z"/> <path d="M655 470 c-10 -31 13 -86 46 -115 43 -35 119 -36 154 0 36 35 30 51 -7 20 -27 -23 -39 -26 -77 -22 -59 7 -91 41 -91 98 0 41 -14 52 -25 19z"/> <path d="M504 465 c-18 -14 -18 -14 4 -8 12 3 22 1 22 -4 0 -19 -34 -56 -64 -69 l-31 -13 33 -1 c43 0 82 38 82 80 0 33 -15 38 -46 15z"/> </g> </svg> 